<?xml version="1.0" encoding="UTF-8" standalone="no"?>
<!DOCTYPE svg PUBLIC "-//W3C//DTD SVG 1.1//EN"
 "http://www.w3.org/Graphics/SVG/1.1/DTD/svg11.dtd">
<!-- Generated by graphviz version 2.40.1 (20161225.0304)
 -->
<!-- Title: G Pages: 1 -->
<svg width="2359pt" height="937pt"
 viewBox="0.00 0.00 2359.00 937.00" xmlns="http://www.w3.org/2000/svg" xmlns:xlink="http://www.w3.org/1999/xlink">
<g id="graph0" class="graph" transform="scale(1 1) rotate(0) translate(4 933)">
<title>G</title>
<g id="a_graph0"><a xlink:title="ARM Ecosystem">
<polygon fill="#ffffff" stroke="transparent" points="-4,4 -4,-933 2355,-933 2355,4 -4,4"/>
<text text-anchor="start" x="1096" y="-914.8" font-family="Times,serif" font-weight="bold" font-size="14.00" fill="#000000">ARM Processor Ecosystem</text>
</a>
</g>
<g id="clust1" class="cluster">
<title>cluster_ARM7T</title>
<g id="a_clust1"><a xlink:title="ARM Ecosystem">
<polygon fill="#ffffff" stroke="#000000" points="8,-752 8,-864 475,-864 475,-752 8,-752"/>
<text text-anchor="middle" x="241.5" y="-848.8" font-family="Times,serif" font-size="14.00" fill="#000000">ARM7T</text>
</a>
</g>
</g>
<g id="clust2" class="cluster">
<title>cluster_ARMv4T</title>
<g id="a_clust2"><a xlink:title="ARM Ecosystem">
<polygon fill="#fb8072" stroke="#fb8072" points="16,-760 16,-833 467,-833 467,-760 16,-760"/>
<text text-anchor="middle" x="241.5" y="-819.4" font-family="Times,serif" font-size="12.00" fill="#000000">ARMv4T</text>
</a>
</g>
</g>
<g id="clust3" class="cluster">
<title>cluster_ARM7EJ</title>
<g id="a_clust3"><a xlink:title="ARM Ecosystem">
<polygon fill="#ffffff" stroke="#000000" points="8,-630 8,-742 148,-742 148,-630 8,-630"/>
<text text-anchor="middle" x="78" y="-726.8" font-family="Times,serif" font-size="14.00" fill="#000000">ARM7EJ</text>
</a>
</g>
</g>
<g id="clust4" class="cluster">
<title>cluster_ARMv5TEJ</title>
<g id="a_clust4"><a xlink:title="ARM Ecosystem">
<polygon fill="#80b1d3" stroke="#80b1d3" points="16,-638 16,-711 140,-711 140,-638 16,-638"/>
<text text-anchor="middle" x="78" y="-697.4" font-family="Times,serif" font-size="12.00" fill="#000000">ARMv5TEJ</text>
</a>
</g>
</g>
<g id="clust5" class="cluster">
<title>cluster_ARM8</title>
<g id="a_clust5"><a xlink:title="ARM Ecosystem">
<polygon fill="#ffffff" stroke="#000000" points="8,-508 8,-620 148,-620 148,-508 8,-508"/>
<text text-anchor="middle" x="78" y="-604.8" font-family="Times,serif" font-size="14.00" fill="#000000">ARM8</text>
</a>
</g>
</g>
<g id="clust6" class="cluster">
<title>cluster_ARMv4</title>
<g id="a_clust6"><a xlink:title="ARM Ecosystem">
<polygon fill="#fb8072" stroke="#fb8072" points="16,-516 16,-589 140,-589 140,-516 16,-516"/>
<text text-anchor="middle" x="78" y="-575.4" font-family="Times,serif" font-size="12.00" fill="#000000">ARMv4</text>
</a>
</g>
</g>
<g id="clust7" class="cluster">
<title>cluster_ARM9T</title>
<g id="a_clust7"><a xlink:title="ARM Ecosystem">
<polygon fill="#ffffff" stroke="#000000" points="8,-386 8,-498 475,-498 475,-386 8,-386"/>
<text text-anchor="middle" x="241.5" y="-482.8" font-family="Times,serif" font-size="14.00" fill="#000000">ARM9T</text>
</a>
</g>
</g>
<g id="clust8" class="cluster">
<title>cluster_ARMv4T</title>
<g id="a_clust8"><a xlink:title="ARM Ecosystem">
<polygon fill="#fb8072" stroke="#fb8072" points="16,-394 16,-467 467,-467 467,-394 16,-394"/>
<text text-anchor="middle" x="241.5" y="-453.4" font-family="Times,serif" font-size="12.00" fill="#000000">ARMv4T</text>
</a>
</g>
</g>
<g id="clust9" class="cluster">
<title>cluster_ARM9E</title>
<g id="a_clust9"><a xlink:title="ARM Ecosystem">
<polygon fill="#ffffff" stroke="#000000" points="8,-248 8,-360 607,-360 607,-248 8,-248"/>
<text text-anchor="middle" x="307.5" y="-344.8" font-family="Times,serif" font-size="14.00" fill="#000000">ARM9E</text>
</a>
</g>
</g>
<g id="clust11" class="cluster">
<title>cluster_ARMv5TEJ</title>
<g id="a_clust11"><a xlink:title="ARM Ecosystem">
<polygon fill="#80b1d3" stroke="#80b1d3" points="475,-256 475,-329 599,-329 599,-256 475,-256"/>
<text text-anchor="middle" x="537" y="-315.4" font-family="Times,serif" font-size="12.00" fill="#000000">ARMv5TEJ</text>
</a>
</g>
</g>
<g id="clust10" class="cluster">
<title>cluster_ARMv5TE</title>
<g id="a_clust10"><a xlink:title="ARM Ecosystem">
<polygon fill="#80b1d3" stroke="#80b1d3" points="16,-256 16,-329 467,-329 467,-256 16,-256"/>
<text text-anchor="middle" x="241.5" y="-315.4" font-family="Times,serif" font-size="12.00" fill="#000000">ARMv5TE</text>
</a>
</g>
</g>
<g id="clust12" class="cluster">
<title>cluster_ARM10E</title>
<g id="a_clust12"><a xlink:title="ARM Ecosystem">
<polygon fill="#ffffff" stroke="#000000" points="8,-128 8,-240 389,-240 389,-128 8,-128"/>
<text text-anchor="middle" x="198.5" y="-224.8" font-family="Times,serif" font-size="14.00" fill="#000000">ARM10E</text>
</a>
</g>
</g>
<g id="clust14" class="cluster">
<title>cluster_ARMv5TEJ</title>
<g id="a_clust14"><a xlink:title="ARM Ecosystem">
<polygon fill="#80b1d3" stroke="#80b1d3" points="257,-136 257,-209 381,-209 381,-136 257,-136"/>
<text text-anchor="middle" x="319" y="-195.4" font-family="Times,serif" font-size="12.00" fill="#000000">ARMv5TEJ</text>
</a>
</g>
</g>
<g id="clust13" class="cluster">
<title>cluster_ARMv5TE</title>
<g id="a_clust13"><a xlink:title="ARM Ecosystem">
<polygon fill="#80b1d3" stroke="#80b1d3" points="16,-136 16,-209 249,-209 249,-136 16,-136"/>
<text text-anchor="middle" x="132.5" y="-195.4" font-family="Times,serif" font-size="12.00" fill="#000000">ARMv5TE</text>
</a>
</g>
</g>
<g id="clust15" class="cluster">
<title>cluster_ARM11</title>
<g id="a_clust15"><a xlink:title="ARM Ecosystem">
<polygon fill="#ffffff" stroke="#000000" points="8,-8 8,-120 544,-120 544,-8 8,-8"/>
<text text-anchor="middle" x="276" y="-104.8" font-family="Times,serif" font-size="14.00" fill="#000000">ARM11</text>
</a>
</g>
</g>
<g id="clust16" class="cluster">
<title>cluster_ARMv6</title>
<g id="a_clust16"><a xlink:title="ARM Ecosystem">
<polygon fill="#fdb462" stroke="#fdb462" points="412,-16 412,-89 536,-89 536,-16 412,-16"/>
<text text-anchor="middle" x="474" y="-75.4" font-family="Times,serif" font-size="12.00" fill="#000000">ARMv6</text>
</a>
</g>
</g>
<g id="clust17" class="cluster">
<title>cluster_ARMv6T2</title>
<g id="a_clust17"><a xlink:title="ARM Ecosystem">
<polygon fill="#fdb462" stroke="#fdb462" points="280,-16 280,-89 404,-89 404,-16 280,-16"/>
<text text-anchor="middle" x="342" y="-75.4" font-family="Times,serif" font-size="12.00" fill="#000000">ARMv6T2</text>
</a>
</g>
</g>
<g id="clust18" class="cluster">
<title>cluster_ARMv6Z</title>
<g id="a_clust18"><a xlink:title="ARM Ecosystem">
<polygon fill="#fdb462" stroke="#fdb462" points="148,-16 148,-89 272,-89 272,-16 148,-16"/>
<text text-anchor="middle" x="210" y="-75.4" font-family="Times,serif" font-size="12.00" fill="#000000">ARMv6Z</text>
</a>
</g>
</g>
<g id="clust19" class="cluster">
<title>cluster_ARMv6K</title>
<g id="a_clust19"><a xlink:title="ARM Ecosystem">
<polygon fill="#fdb462" stroke="#fdb462" points="16,-16 16,-89 140,-89 140,-16 16,-16"/>
<text text-anchor="middle" x="78" y="-75.4" font-family="Times,serif" font-size="12.00" fill="#000000">ARMv6K</text>
</a>
</g>
</g>
<g id="clust20" class="cluster">
<title>cluster_ARM1</title>
<g id="a_clust20"><a xlink:title="ARM Ecosystem">
<polygon fill="#ffffff" stroke="#000000" points="615,-752 615,-864 755,-864 755,-752 615,-752"/>
<text text-anchor="middle" x="685" y="-848.8" font-family="Times,serif" font-size="14.00" fill="#000000">ARM1</text>
</a>
</g>
</g>
<g id="clust21" class="cluster">
<title>cluster_ARMv1</title>
<g id="a_clust21"><a xlink:title="ARM Ecosystem">
<polygon fill="#8dd3c7" stroke="#8dd3c7" points="623,-760 623,-833 747,-833 747,-760 623,-760"/>
<text text-anchor="middle" x="685" y="-819.4" font-family="Times,serif" font-size="12.00" fill="#000000">ARMv1</text>
</a>
</g>
</g>
<g id="clust22" class="cluster">
<title>cluster_ARM2</title>
<g id="a_clust22"><a xlink:title="ARM Ecosystem">
<polygon fill="#ffffff" stroke="#000000" points="615,-630 615,-742 887,-742 887,-630 615,-630"/>
<text text-anchor="middle" x="751" y="-726.8" font-family="Times,serif" font-size="14.00" fill="#000000">ARM2</text>
</a>
</g>
</g>
<g id="clust23" class="cluster">
<title>cluster_ARMv2</title>
<g id="a_clust23"><a xlink:title="ARM Ecosystem">
<polygon fill="#ffffb3" stroke="#ffffb3" points="755,-638 755,-711 879,-711 879,-638 755,-638"/>
<text text-anchor="middle" x="817" y="-697.4" font-family="Times,serif" font-size="12.00" fill="#000000">ARMv2</text>
</a>
</g>
</g>
<g id="clust24" class="cluster">
<title>cluster_ARMv2a</title>
<g id="a_clust24"><a xlink:title="ARM Ecosystem">
<polygon fill="#ffffb3" stroke="#ffffb3" points="623,-638 623,-711 747,-711 747,-638 623,-638"/>
<text text-anchor="middle" x="685" y="-697.4" font-family="Times,serif" font-size="12.00" fill="#000000">ARMv2a</text>
</a>
</g>
</g>
<g id="clust25" class="cluster">
<title>cluster_ARM3</title>
<g id="a_clust25"><a xlink:title="ARM Ecosystem">
<polygon fill="#ffffff" stroke="#000000" points="615,-508 615,-620 755,-620 755,-508 615,-508"/>
<text text-anchor="middle" x="685" y="-604.8" font-family="Times,serif" font-size="14.00" fill="#000000">ARM3</text>
</a>
</g>
</g>
<g id="clust26" class="cluster">
<title>cluster_ARMv2a</title>
<g id="a_clust26"><a xlink:title="ARM Ecosystem">
<polygon fill="#ffffb3" stroke="#ffffb3" points="623,-516 623,-589 747,-589 747,-516 623,-516"/>
<text text-anchor="middle" x="685" y="-575.4" font-family="Times,serif" font-size="12.00" fill="#000000">ARMv2a</text>
</a>
</g>
</g>
<g id="clust27" class="cluster">
<title>cluster_ARM6</title>
<g id="a_clust27"><a xlink:title="ARM Ecosystem">
<polygon fill="#ffffff" stroke="#000000" points="615,-386 615,-498 973,-498 973,-386 615,-386"/>
<text text-anchor="middle" x="794" y="-482.8" font-family="Times,serif" font-size="14.00" fill="#000000">ARM6</text>
</a>
</g>
</g>
<g id="clust28" class="cluster">
<title>cluster_ARMv3</title>
<g id="a_clust28"><a xlink:title="ARM Ecosystem">
<polygon fill="#bebada" stroke="#bebada" points="623,-394 623,-467 965,-467 965,-394 623,-394"/>
<text text-anchor="middle" x="794" y="-453.4" font-family="Times,serif" font-size="12.00" fill="#000000">ARMv3</text>
</a>
</g>
</g>
<g id="clust29" class="cluster">
<title>cluster_ARM7</title>
<g id="a_clust29"><a xlink:title="ARM Ecosystem">
<polygon fill="#ffffff" stroke="#000000" points="615,-248 615,-360 973,-360 973,-248 615,-248"/>
<text text-anchor="middle" x="794" y="-344.8" font-family="Times,serif" font-size="14.00" fill="#000000">ARM7</text>
</a>
</g>
</g>
<g id="clust30" class="cluster">
<title>cluster_ARMv3</title>
<g id="a_clust30"><a xlink:title="ARM Ecosystem">
<polygon fill="#bebada" stroke="#bebada" points="623,-256 623,-329 965,-329 965,-256 623,-256"/>
<text text-anchor="middle" x="794" y="-315.4" font-family="Times,serif" font-size="12.00" fill="#000000">ARMv3</text>
</a>
</g>
</g>
<g id="clust31" class="cluster">
<title>cluster_SecurCore</title>
<g id="a_clust31"><a xlink:title="ARM Ecosystem">
<polygon fill="#ffffff" stroke="#000000" points="981,-752 981,-864 1385,-864 1385,-752 981,-752"/>
<text text-anchor="middle" x="1183" y="-848.8" font-family="Times,serif" font-size="14.00" fill="#000000">SecurCore</text>
</a>
</g>
</g>
<g id="clust33" class="cluster">
<title>cluster_ARMv4T</title>
<g id="a_clust33"><a xlink:title="ARM Ecosystem">
<polygon fill="#fb8072" stroke="#fb8072" points="1253,-760 1253,-833 1377,-833 1377,-760 1253,-760"/>
<text text-anchor="middle" x="1315" y="-819.4" font-family="Times,serif" font-size="12.00" fill="#000000">ARMv4T</text>
</a>
</g>
</g>
<g id="clust32" class="cluster">
<title>cluster_ARMv6_M</title>
<g id="a_clust32"><a xlink:title="ARM Ecosystem">
<polygon fill="#fdb462" stroke="#fdb462" points="1121,-760 1121,-833 1245,-833 1245,-760 1121,-760"/>
<text text-anchor="middle" x="1183" y="-819.4" font-family="Times,serif" font-size="12.00" fill="#000000">ARMv6&#45;M</text>
</a>
</g>
</g>
<g id="clust34" class="cluster">
<title>cluster_ARMv7_M</title>
<g id="a_clust34"><a xlink:title="ARM Ecosystem">
<polygon fill="#b3de69" stroke="#b3de69" points="989,-760 989,-833 1113,-833 1113,-760 989,-760"/>
<text text-anchor="middle" x="1051" y="-819.4" font-family="Times,serif" font-size="12.00" fill="#000000">ARMv7&#45;M</text>
</a>
</g>
</g>
<g id="clust35" class="cluster">
<title>cluster_Cortex_M</title>
<g id="a_clust35"><a xlink:title="ARM Ecosystem">
<polygon fill="#ffffff" stroke="#000000" points="980,-508 980,-742 1978,-742 1978,-508 980,-508"/>
<text text-anchor="middle" x="1479" y="-726.8" font-family="Times,serif" font-size="14.00" fill="#000000">Cortex&#45;M</text>
</a>
</g>
</g>
<g id="clust36" class="cluster">
<title>cluster_ARMv6_M</title>
<g id="a_clust36"><a xlink:title="ARM Ecosystem">
<polygon fill="#fdb462" stroke="#fdb462" points="1628,-638 1628,-711 1970,-711 1970,-638 1628,-638"/>
<text text-anchor="middle" x="1799" y="-697.4" font-family="Times,serif" font-size="12.00" fill="#000000">ARMv6&#45;M</text>
</a>
</g>
</g>
<g id="clust37" class="cluster">
<title>cluster_ARMv7_M</title>
<g id="a_clust37"><a xlink:title="ARM Ecosystem">
<polygon fill="#b3de69" stroke="#b3de69" points="1496,-638 1496,-711 1620,-711 1620,-638 1496,-638"/>
<text text-anchor="middle" x="1558" y="-697.4" font-family="Times,serif" font-size="12.00" fill="#000000">ARMv7&#45;M</text>
</a>
</g>
</g>
<g id="clust38" class="cluster">
<title>cluster_ARMv7E_M</title>
<g id="a_clust38"><a xlink:title="ARM Ecosystem">
<polygon fill="#b3de69" stroke="#b3de69" points="989,-516 989,-589 1222,-589 1222,-516 989,-516"/>
<text text-anchor="middle" x="1105.5" y="-575.4" font-family="Times,serif" font-size="12.00" fill="#000000">ARMv7E&#45;M</text>
</a>
</g>
</g>
<g id="clust39" class="cluster">
<title>cluster_ARMv8_M_Baseline</title>
<g id="a_clust39"><a xlink:title="ARM Ecosystem">
<polygon fill="#fccde5" stroke="#fccde5" points="1364,-638 1364,-711 1488,-711 1488,-638 1364,-638"/>
<text text-anchor="middle" x="1426" y="-697.4" font-family="Times,serif" font-size="12.00" fill="#000000">ARMv8&#45;M Baseline</text>
</a>
</g>
</g>
<g id="clust40" class="cluster">
<title>cluster_ARMv8_M_Mainline</title>
<g id="a_clust40"><a xlink:title="ARM Ecosystem">
<polygon fill="#fccde5" stroke="#fccde5" points="1123,-638 1123,-711 1356,-711 1356,-638 1123,-638"/>
<text text-anchor="middle" x="1239.5" y="-697.4" font-family="Times,serif" font-size="12.00" fill="#000000">ARMv8_M Mainline</text>
</a>
</g>
</g>
<g id="clust41" class="cluster">
<title>cluster_ARMv81_MMainline</title>
<g id="a_clust41"><a xlink:title="ARM Ecosystem">
<polygon fill="#fccde5" stroke="#fccde5" points="988,-638 988,-711 1115,-711 1115,-638 988,-638"/>
<text text-anchor="middle" x="1051.5" y="-697.4" font-family="Times,serif" font-size="12.00" fill="#000000">ARMv8.1_M Mainline</text>
</a>
</g>
</g>
<g id="clust42" class="cluster">
<title>cluster_Cortex_R</title>
<g id="a_clust42"><a xlink:title="ARM Ecosystem">
<polygon fill="#ffffff" stroke="#000000" points="981,-386 981,-498 1689,-498 1689,-386 981,-386"/>
<text text-anchor="middle" x="1335" y="-482.8" font-family="Times,serif" font-size="14.00" fill="#000000">Cortex&#45;R</text>
</a>
</g>
</g>
<g id="clust43" class="cluster">
<title>cluster_ARMv7_R</title>
<g id="a_clust43"><a xlink:title="ARM Ecosystem">
<polygon fill="#b3de69" stroke="#b3de69" points="1230,-394 1230,-467 1681,-467 1681,-394 1230,-394"/>
<text text-anchor="middle" x="1455.5" y="-453.4" font-family="Times,serif" font-size="12.00" fill="#000000">ARMv7&#45;R</text>
</a>
</g>
</g>
<g id="clust44" class="cluster">
<title>cluster_ARMv8_R</title>
<g id="a_clust44"><a xlink:title="ARM Ecosystem">
<polygon fill="#fccde5" stroke="#fccde5" points="989,-394 989,-467 1222,-467 1222,-394 989,-394"/>
<text text-anchor="middle" x="1105.5" y="-453.4" font-family="Times,serif" font-size="12.00" fill="#000000">ARMv8&#45;R</text>
</a>
</g>
</g>
<g id="clust45" class="cluster">
<title>cluster_Cortex_A_32</title>
<g id="a_clust45"><a xlink:title="ARM Ecosystem">
<polygon fill="#ffffff" stroke="#000000" points="981,-248 981,-360 1907,-360 1907,-248 981,-248"/>
<text text-anchor="middle" x="1444" y="-344.8" font-family="Times,serif" font-size="14.00" fill="#000000">Cortex&#45;A (32&#45;bit)</text>
</a>
</g>
</g>
<g id="clust46" class="cluster">
<title>cluster_ARMv7_A</title>
<g id="a_clust46"><a xlink:title="ARM Ecosystem">
<polygon fill="#b3de69" stroke="#b3de69" points="1121,-256 1121,-329 1899,-329 1899,-256 1121,-256"/>
<text text-anchor="middle" x="1510" y="-315.4" font-family="Times,serif" font-size="12.00" fill="#000000">ARMv7&#45;A</text>
</a>
</g>
</g>
<g id="clust47" class="cluster">
<title>cluster_ARMv8_A</title>
<g id="a_clust47"><a xlink:title="ARM Ecosystem">
<polygon fill="#fccde5" stroke="#fccde5" points="989,-256 989,-329 1113,-329 1113,-256 989,-256"/>
<text text-anchor="middle" x="1051" y="-315.4" font-family="Times,serif" font-size="12.00" fill="#000000">ARMv8&#45;A</text>
</a>
</g>
</g>
<g id="clust48" class="cluster">
<title>cluster_Cortex_A_64</title>
<g id="a_clust48"><a xlink:title="ARM Ecosystem">
<polygon fill="#ffffff" stroke="#000000" points="981,-8 981,-240 2343,-240 2343,-8 981,-8"/>
<text text-anchor="middle" x="1662" y="-224.8" font-family="Times,serif" font-size="14.00" fill="#000000">Cortex&#45;A (64&#45;bit)</text>
</a>
</g>
</g>
<g id="clust49" class="cluster">
<title>cluster_ARMv8_A</title>
<g id="a_clust49"><a xlink:title="ARM Ecosystem">
<polygon fill="#fccde5" stroke="#fccde5" points="989,-16 989,-89 1658,-89 1658,-16 989,-16"/>
<text text-anchor="middle" x="1323.5" y="-75.4" font-family="Times,serif" font-size="12.00" fill="#000000">ARMv8&#45;A</text>
</a>
</g>
</g>
<g id="clust50" class="cluster">
<title>cluster_ARMv8p2_A</title>
<g id="a_clust50"><a xlink:title="ARM Ecosystem">
<polygon fill="#fccde5" stroke="#fccde5" points="1121,-136 1121,-209 2335,-209 2335,-136 1121,-136"/>
<text text-anchor="middle" x="1728" y="-195.4" font-family="Times,serif" font-size="12.00" fill="#000000">ARMv8.2&#45;A</text>
</a>
</g>
</g>
<g id="clust51" class="cluster">
<title>cluster_ARMv9_A</title>
<g id="a_clust51"><a xlink:title="ARM Ecosystem">
<polygon fill="#bc80bd" stroke="#bc80bd" points="989,-136 989,-209 1113,-209 1113,-136 989,-136"/>
<text text-anchor="middle" x="1051" y="-195.4" font-family="Times,serif" font-size="12.00" fill="#000000">ARMv9&#45;A</text>
</a>
</g>
</g>
<g id="clust52" class="cluster">
<title>cluster_Neoverse</title>
<g id="a_clust52"><a xlink:title="ARM Ecosystem">
<polygon fill="#ffffff" stroke="#000000" points="615,-128 615,-240 973,-240 973,-128 615,-128"/>
<text text-anchor="middle" x="794" y="-224.8" font-family="Times,serif" font-size="14.00" fill="#000000">Neoverse</text>
</a>
</g>
</g>
<g id="clust53" class="cluster">
<title>cluster_Neoverse_arch</title>
<g id="a_clust53"><a xlink:title="ARM Ecosystem">
<polygon fill="#ccebc5" stroke="#ccebc5" points="623,-136 623,-209 965,-209 965,-136 623,-136"/>
<text text-anchor="middle" x="794" y="-195.4" font-family="Times,serif" font-size="12.00" fill="#000000">Neoverse</text>
</a>
</g>
</g>
<g id="clust54" class="cluster">
<title>cluster_keyFamily</title>
<g id="a_clust54"><a xlink:title="Key">
<polygon fill="#ffffff" stroke="#000000" points="2040,-368 2040,-898 2288,-898 2288,-368 2040,-368"/>
<text text-anchor="start" x="2104" y="-879" font-family="Times,serif" font-weight="bold" font-size="20.00" fill="#000000">Key: </text>
<text text-anchor="start" x="2151" y="-879" font-family="Times,serif" font-size="20.00" fill="#000000"> &#160;&#160;Family</text>
</a>
</g>
</g>
<g id="clust55" class="cluster">
<title>cluster_keyArch</title>
<g id="a_clust55"><a xlink:title="Key">
<polygon fill="#d9d9d9" stroke="#d9d9d9" points="2048,-376 2048,-860 2280,-860 2280,-376 2048,-376"/>
<text text-anchor="middle" x="2164" y="-840" font-family="Times,serif" font-size="20.00" fill="#000000">Architecture</text>
</a>
</g>
</g>
<!-- ARM7TDMI -->
<g id="node1" class="node">
<title>ARM7TDMI</title>
<polygon fill="#ffa500" stroke="#000000" points="459,-804 351,-804 351,-768 459,-768 459,-804"/>
<text text-anchor="middle" x="405" y="-782.9" font-family="Times,serif" font-size="12.00" fill="#000000">ARM7TDMI</text>
</g>
<!-- ARM710T -->
<g id="node2" class="node">
<title>ARM710T</title>
<polygon fill="#ffa500" stroke="#000000" points="350,-804 242,-804 242,-768 350,-768 350,-804"/>
<text text-anchor="middle" x="296" y="-782.9" font-family="Times,serif" font-size="12.00" fill="#000000">ARM710T</text>
</g>
<!-- ARM720T -->
<g id="node3" class="node">
<title>ARM720T</title>
<polygon fill="#ffa500" stroke="#000000" points="241,-804 133,-804 133,-768 241,-768 241,-804"/>
<text text-anchor="middle" x="187" y="-782.9" font-family="Times,serif" font-size="12.00" fill="#000000">ARM720T</text>
</g>
<!-- ARM740T -->
<g id="node4" class="node">
<title>ARM740T</title>
<polygon fill="#ffa500" stroke="#000000" points="132,-804 24,-804 24,-768 132,-768 132,-804"/>
<text text-anchor="middle" x="78" y="-782.9" font-family="Times,serif" font-size="12.00" fill="#000000">ARM740T</text>
</g>
<!-- ARM7EJ_S -->
<g id="node5" class="node">
<title>ARM7EJ_S</title>
<polygon fill="#ffa500" stroke="#000000" points="132,-682 24,-682 24,-646 132,-646 132,-682"/>
<text text-anchor="middle" x="78" y="-660.9" font-family="Times,serif" font-size="12.00" fill="#000000">ARM7EJ&#45;S</text>
</g>
<!-- ARM740T&#45;&gt;ARM7EJ_S -->
<!-- ARM810 -->
<g id="node6" class="node">
<title>ARM810</title>
<polygon fill="#ffa500" stroke="#000000" points="132,-560 24,-560 24,-524 132,-524 132,-560"/>
<text text-anchor="middle" x="78" y="-538.9" font-family="Times,serif" font-size="12.00" fill="#000000">ARM810</text>
</g>
<!-- ARM7EJ_S&#45;&gt;ARM810 -->
<!-- ARM940T -->
<g id="node10" class="node">
<title>ARM940T</title>
<polygon fill="#ffa500" stroke="#000000" points="132,-438 24,-438 24,-402 132,-402 132,-438"/>
<text text-anchor="middle" x="78" y="-416.9" font-family="Times,serif" font-size="12.00" fill="#000000">ARM940T</text>
</g>
<!-- ARM810&#45;&gt;ARM940T -->
<!-- ARM9TDMI -->
<g id="node7" class="node">
<title>ARM9TDMI</title>
<polygon fill="#ffa500" stroke="#000000" points="459,-438 351,-438 351,-402 459,-402 459,-438"/>
<text text-anchor="middle" x="405" y="-416.9" font-family="Times,serif" font-size="12.00" fill="#000000">ARM9TDMI</text>
</g>
<!-- ARM920T -->
<g id="node8" class="node">
<title>ARM920T</title>
<polygon fill="#ffa500" stroke="#000000" points="350,-438 242,-438 242,-402 350,-402 350,-438"/>
<text text-anchor="middle" x="296" y="-416.9" font-family="Times,serif" font-size="12.00" fill="#000000">ARM920T</text>
</g>
<!-- ARM922T -->
<g id="node9" class="node">
<title>ARM922T</title>
<polygon fill="#ffa500" stroke="#000000" points="241,-438 133,-438 133,-402 241,-402 241,-438"/>
<text text-anchor="middle" x="187" y="-416.9" font-family="Times,serif" font-size="12.00" fill="#000000">ARM922T</text>
</g>
<!-- ARM996HS -->
<g id="node14" class="node">
<title>ARM996HS</title>
<polygon fill="#ffa500" stroke="#000000" points="132,-300 24,-300 24,-264 132,-264 132,-300"/>
<text text-anchor="middle" x="78" y="-278.9" font-family="Times,serif" font-size="12.00" fill="#000000">ARM996HS</text>
</g>
<!-- ARM940T&#45;&gt;ARM996HS -->
<!-- ARM946E_S -->
<g id="node11" class="node">
<title>ARM946E_S</title>
<polygon fill="#ffa500" stroke="#000000" points="459,-300 351,-300 351,-264 459,-264 459,-300"/>
<text text-anchor="middle" x="405" y="-278.9" font-family="Times,serif" font-size="12.00" fill="#000000">ARM946E&#45;S</text>
</g>
<!-- ARM966E_S -->
<g id="node12" class="node">
<title>ARM966E_S</title>
<polygon fill="#ffa500" stroke="#000000" points="350,-300 242,-300 242,-264 350,-264 350,-300"/>
<text text-anchor="middle" x="296" y="-278.9" font-family="Times,serif" font-size="12.00" fill="#000000">ARM966E&#45;S</text>
</g>
<!-- ARM968E_S -->
<g id="node13" class="node">
<title>ARM968E_S</title>
<polygon fill="#ffa500" stroke="#000000" points="241,-300 133,-300 133,-264 241,-264 241,-300"/>
<text text-anchor="middle" x="187" y="-278.9" font-family="Times,serif" font-size="12.00" fill="#000000">ARM968E&#45;S</text>
</g>
<!-- ARM1022E -->
<g id="node17" class="node">
<title>ARM1022E</title>
<polygon fill="#ffa500" stroke="#000000" points="132,-180 24,-180 24,-144 132,-144 132,-180"/>
<text text-anchor="middle" x="78" y="-158.9" font-family="Times,serif" font-size="12.00" fill="#000000">ARM1022E</text>
</g>
<!-- ARM996HS&#45;&gt;ARM1022E -->
<!-- ARM926EJ_S -->
<g id="node15" class="node">
<title>ARM926EJ_S</title>
<polygon fill="#ffa500" stroke="#000000" points="591,-300 483,-300 483,-264 591,-264 591,-300"/>
<text text-anchor="middle" x="537" y="-278.9" font-family="Times,serif" font-size="12.00" fill="#000000">ARM926EJ&#45;S</text>
</g>
<!-- ARM1020E -->
<g id="node16" class="node">
<title>ARM1020E</title>
<polygon fill="#ffa500" stroke="#000000" points="241,-180 133,-180 133,-144 241,-144 241,-180"/>
<text text-anchor="middle" x="187" y="-158.9" font-family="Times,serif" font-size="12.00" fill="#000000">ARM1020E</text>
</g>
<!-- ARM11MPCore -->
<g id="node22" class="node">
<title>ARM11MPCore</title>
<polygon fill="#ffa500" stroke="#000000" points="132,-60 24,-60 24,-24 132,-24 132,-60"/>
<text text-anchor="middle" x="78" y="-38.9" font-family="Times,serif" font-size="12.00" fill="#000000">ARM11MPCore</text>
</g>
<!-- ARM1022E&#45;&gt;ARM11MPCore -->
<!-- ARM1026EJ_S -->
<g id="node18" class="node">
<title>ARM1026EJ_S</title>
<polygon fill="#ffa500" stroke="#000000" points="373,-180 265,-180 265,-144 373,-144 373,-180"/>
<text text-anchor="middle" x="319" y="-158.9" font-family="Times,serif" font-size="12.00" fill="#000000">ARM1026EJ&#45;S</text>
</g>
<!-- ARM1136JF_S -->
<g id="node19" class="node">
<title>ARM1136JF_S</title>
<polygon fill="#ffa500" stroke="#000000" points="528,-60 420,-60 420,-24 528,-24 528,-60"/>
<text text-anchor="middle" x="474" y="-38.9" font-family="Times,serif" font-size="12.00" fill="#000000">ARM1136J(F)&#45;S</text>
</g>
<!-- ARM1156T2F_S -->
<g id="node20" class="node">
<title>ARM1156T2F_S</title>
<polygon fill="#ffa500" stroke="#000000" points="396,-60 288,-60 288,-24 396,-24 396,-60"/>
<text text-anchor="middle" x="342" y="-38.9" font-family="Times,serif" font-size="12.00" fill="#000000">ARM1156T2(F)&#45;S</text>
</g>
<!-- ARM1176JZF_S -->
<g id="node21" class="node">
<title>ARM1176JZF_S</title>
<polygon fill="#ffa500" stroke="#000000" points="264,-60 156,-60 156,-24 264,-24 264,-60"/>
<text text-anchor="middle" x="210" y="-38.9" font-family="Times,serif" font-size="12.00" fill="#000000">ARM1176JZ(F)&#45;S</text>
</g>
<!-- ARM1 -->
<g id="node23" class="node">
<title>ARM1</title>
<polygon fill="#009acd" stroke="#000000" points="739,-804 631,-804 631,-768 739,-768 739,-804"/>
<text text-anchor="middle" x="685" y="-782.9" font-family="Times,serif" font-size="12.00" fill="#000000">ARM1</text>
</g>
<!-- ARM250 -->
<g id="node25" class="node">
<title>ARM250</title>
<polygon fill="#009acd" stroke="#000000" points="739,-682 631,-682 631,-646 739,-646 739,-682"/>
<text text-anchor="middle" x="685" y="-660.9" font-family="Times,serif" font-size="12.00" fill="#000000">ARM250</text>
</g>
<!-- ARM1&#45;&gt;ARM250 -->
<!-- ARM2 -->
<g id="node24" class="node">
<title>ARM2</title>
<polygon fill="#009acd" stroke="#000000" points="871,-682 763,-682 763,-646 871,-646 871,-682"/>
<text text-anchor="middle" x="817" y="-660.9" font-family="Times,serif" font-size="12.00" fill="#000000">ARM2</text>
</g>
<!-- ARM3 -->
<g id="node26" class="node">
<title>ARM3</title>
<polygon fill="#009acd" stroke="#000000" points="739,-560 631,-560 631,-524 739,-524 739,-560"/>
<text text-anchor="middle" x="685" y="-538.9" font-family="Times,serif" font-size="12.00" fill="#000000">ARM3</text>
</g>
<!-- ARM250&#45;&gt;ARM3 -->
<!-- ARM610 -->
<g id="node29" class="node">
<title>ARM610</title>
<polygon fill="#009acd" stroke="#000000" points="739,-438 631,-438 631,-402 739,-402 739,-438"/>
<text text-anchor="middle" x="685" y="-416.9" font-family="Times,serif" font-size="12.00" fill="#000000">ARM610</text>
</g>
<!-- ARM3&#45;&gt;ARM610 -->
<!-- ARM60 -->
<g id="node27" class="node">
<title>ARM60</title>
<polygon fill="#009acd" stroke="#000000" points="957,-438 849,-438 849,-402 957,-402 957,-438"/>
<text text-anchor="middle" x="903" y="-416.9" font-family="Times,serif" font-size="12.00" fill="#000000">ARM60</text>
</g>
<!-- ARM600 -->
<g id="node28" class="node">
<title>ARM600</title>
<polygon fill="#009acd" stroke="#000000" points="848,-438 740,-438 740,-402 848,-402 848,-438"/>
<text text-anchor="middle" x="794" y="-416.9" font-family="Times,serif" font-size="12.00" fill="#000000">ARM600</text>
</g>
<!-- ARM710a -->
<g id="node32" class="node">
<title>ARM710a</title>
<polygon fill="#009acd" stroke="#000000" points="739,-300 631,-300 631,-264 739,-264 739,-300"/>
<text text-anchor="middle" x="685" y="-278.9" font-family="Times,serif" font-size="12.00" fill="#000000">ARM710a</text>
</g>
<!-- ARM610&#45;&gt;ARM710a -->
<!-- ARM700 -->
<g id="node30" class="node">
<title>ARM700</title>
<polygon fill="#009acd" stroke="#000000" points="957,-300 849,-300 849,-264 957,-264 957,-300"/>
<text text-anchor="middle" x="903" y="-278.9" font-family="Times,serif" font-size="12.00" fill="#000000">ARM700</text>
</g>
<!-- ARM710 -->
<g id="node31" class="node">
<title>ARM710</title>
<polygon fill="#009acd" stroke="#000000" points="848,-300 740,-300 740,-264 848,-264 848,-300"/>
<text text-anchor="middle" x="794" y="-278.9" font-family="Times,serif" font-size="12.00" fill="#000000">ARM710</text>
</g>
<!-- Neoverse_N3 -->
<g id="node80" class="node">
<title>Neoverse_N3</title>
<polygon fill="#c0c0c0" stroke="#000000" points="739,-180 631,-180 631,-144 739,-144 739,-180"/>
<text text-anchor="middle" x="685" y="-158.9" font-family="Times,serif" font-size="12.00" fill="#000000">Neoverse N3</text>
</g>
<!-- ARM710a&#45;&gt;Neoverse_N3 -->
<!-- SC000 -->
<g id="node33" class="node">
<title>SC000</title>
<polygon fill="#ffa500" stroke="#000000" points="1237,-804 1129,-804 1129,-768 1237,-768 1237,-804"/>
<text text-anchor="middle" x="1183" y="-782.9" font-family="Times,serif" font-size="12.00" fill="#000000">SC000</text>
</g>
<!-- SC100 -->
<g id="node34" class="node">
<title>SC100</title>
<polygon fill="#ffa500" stroke="#000000" points="1369,-804 1261,-804 1261,-768 1369,-768 1369,-804"/>
<text text-anchor="middle" x="1315" y="-782.9" font-family="Times,serif" font-size="12.00" fill="#000000">SC100</text>
</g>
<!-- SC300 -->
<g id="node35" class="node">
<title>SC300</title>
<polygon fill="#9acd32" stroke="#000000" points="1105,-804 997,-804 997,-768 1105,-768 1105,-804"/>
<text text-anchor="middle" x="1051" y="-782.9" font-family="Times,serif" font-size="12.00" fill="#000000">SC300</text>
</g>
<!-- Cortex_M55 -->
<g id="node45" class="node">
<title>Cortex_M55</title>
<polygon fill="#9acd32" stroke="#000000" points="1105,-682 997,-682 997,-646 1105,-646 1105,-682"/>
<text text-anchor="middle" x="1051" y="-660.9" font-family="Times,serif" font-size="12.00" fill="#000000">Cortex&#45;M55</text>
</g>
<!-- SC300&#45;&gt;Cortex_M55 -->
<!-- Cortex_M0 -->
<g id="node36" class="node">
<title>Cortex_M0</title>
<polygon fill="#9acd32" stroke="#000000" points="1962,-682 1854,-682 1854,-646 1962,-646 1962,-682"/>
<text text-anchor="middle" x="1908" y="-660.9" font-family="Times,serif" font-size="12.00" fill="#000000">Cortex&#45;M0</text>
</g>
<!-- Cortex_M0plus -->
<g id="node37" class="node">
<title>Cortex_M0plus</title>
<polygon fill="#9acd32" stroke="#000000" points="1853,-682 1745,-682 1745,-646 1853,-646 1853,-682"/>
<text text-anchor="middle" x="1799" y="-660.9" font-family="Times,serif" font-size="12.00" fill="#000000">Cortex&#45;M0+</text>
</g>
<!-- Cortex_M1 -->
<g id="node38" class="node">
<title>Cortex_M1</title>
<polygon fill="#9acd32" stroke="#000000" points="1744,-682 1636,-682 1636,-646 1744,-646 1744,-682"/>
<text text-anchor="middle" x="1690" y="-660.9" font-family="Times,serif" font-size="12.00" fill="#000000">Cortex&#45;M1</text>
</g>
<!-- Cortex_M3 -->
<g id="node39" class="node">
<title>Cortex_M3</title>
<polygon fill="#9acd32" stroke="#000000" points="1612,-682 1504,-682 1504,-646 1612,-646 1612,-682"/>
<text text-anchor="middle" x="1558" y="-660.9" font-family="Times,serif" font-size="12.00" fill="#000000">Cortex&#45;M3</text>
</g>
<!-- Cortex_M4 -->
<g id="node40" class="node">
<title>Cortex_M4</title>
<polygon fill="#9acd32" stroke="#000000" points="1214,-560 1106,-560 1106,-524 1214,-524 1214,-560"/>
<text text-anchor="middle" x="1160" y="-538.9" font-family="Times,serif" font-size="12.00" fill="#000000">Cortex&#45;M4</text>
</g>
<!-- Cortex_M7 -->
<g id="node41" class="node">
<title>Cortex_M7</title>
<polygon fill="#9acd32" stroke="#000000" points="1105,-560 997,-560 997,-524 1105,-524 1105,-560"/>
<text text-anchor="middle" x="1051" y="-538.9" font-family="Times,serif" font-size="12.00" fill="#000000">Cortex&#45;M7</text>
</g>
<!-- Cortex_R82 -->
<g id="node51" class="node">
<title>Cortex_R82</title>
<polygon fill="#9acd32" stroke="#000000" points="1105,-438 997,-438 997,-402 1105,-402 1105,-438"/>
<text text-anchor="middle" x="1051" y="-416.9" font-family="Times,serif" font-size="12.00" fill="#000000">Cortex&#45;R82</text>
</g>
<!-- Cortex_M7&#45;&gt;Cortex_R82 -->
<!-- Cortex_M23 -->
<g id="node42" class="node">
<title>Cortex_M23</title>
<polygon fill="#9acd32" stroke="#000000" points="1480,-682 1372,-682 1372,-646 1480,-646 1480,-682"/>
<text text-anchor="middle" x="1426" y="-660.9" font-family="Times,serif" font-size="12.00" fill="#000000">Cortex&#45;M23</text>
</g>
<!-- Cortex_M33 -->
<g id="node43" class="node">
<title>Cortex_M33</title>
<polygon fill="#9acd32" stroke="#000000" points="1348,-682 1240,-682 1240,-646 1348,-646 1348,-682"/>
<text text-anchor="middle" x="1294" y="-660.9" font-family="Times,serif" font-size="12.00" fill="#000000">Cortex&#45;M33</text>
</g>
<!-- Cortex_M35P -->
<g id="node44" class="node">
<title>Cortex_M35P</title>
<polygon fill="#9acd32" stroke="#000000" points="1239,-682 1131,-682 1131,-646 1239,-646 1239,-682"/>
<text text-anchor="middle" x="1185" y="-660.9" font-family="Times,serif" font-size="12.00" fill="#000000">Cortex&#45;M35P</text>
</g>
<!-- Cortex_M55&#45;&gt;Cortex_M7 -->
<!-- Cortex_R4 -->
<g id="node46" class="node">
<title>Cortex_R4</title>
<polygon fill="#9acd32" stroke="#000000" points="1673,-438 1565,-438 1565,-402 1673,-402 1673,-438"/>
<text text-anchor="middle" x="1619" y="-416.9" font-family="Times,serif" font-size="12.00" fill="#000000">Cortex&#45;R4</text>
</g>
<!-- Cortex_R5 -->
<g id="node47" class="node">
<title>Cortex_R5</title>
<polygon fill="#9acd32" stroke="#000000" points="1564,-438 1456,-438 1456,-402 1564,-402 1564,-438"/>
<text text-anchor="middle" x="1510" y="-416.9" font-family="Times,serif" font-size="12.00" fill="#000000">Cortex&#45;R5</text>
</g>
<!-- Cortex_R7 -->
<g id="node48" class="node">
<title>Cortex_R7</title>
<polygon fill="#9acd32" stroke="#000000" points="1455,-438 1347,-438 1347,-402 1455,-402 1455,-438"/>
<text text-anchor="middle" x="1401" y="-416.9" font-family="Times,serif" font-size="12.00" fill="#000000">Cortex&#45;R7</text>
</g>
<!-- Cortex_R8 -->
<g id="node49" class="node">
<title>Cortex_R8</title>
<polygon fill="#9acd32" stroke="#000000" points="1346,-438 1238,-438 1238,-402 1346,-402 1346,-438"/>
<text text-anchor="middle" x="1292" y="-416.9" font-family="Times,serif" font-size="12.00" fill="#000000">Cortex&#45;R8</text>
</g>
<!-- Cortex_R52 -->
<g id="node50" class="node">
<title>Cortex_R52</title>
<polygon fill="#9acd32" stroke="#000000" points="1214,-438 1106,-438 1106,-402 1214,-402 1214,-438"/>
<text text-anchor="middle" x="1160" y="-416.9" font-family="Times,serif" font-size="12.00" fill="#000000">Cortex&#45;R52</text>
</g>
<!-- Cortex_A32 -->
<g id="node59" class="node">
<title>Cortex_A32</title>
<polygon fill="#9acd32" stroke="#000000" points="1105,-300 997,-300 997,-264 1105,-264 1105,-300"/>
<text text-anchor="middle" x="1051" y="-278.9" font-family="Times,serif" font-size="12.00" fill="#000000">Cortex&#45;A32</text>
</g>
<!-- Cortex_R82&#45;&gt;Cortex_A32 -->
<!-- Cortex_A5 -->
<g id="node52" class="node">
<title>Cortex_A5</title>
<polygon fill="#9acd32" stroke="#000000" points="1891,-300 1783,-300 1783,-264 1891,-264 1891,-300"/>
<text text-anchor="middle" x="1837" y="-278.9" font-family="Times,serif" font-size="12.00" fill="#000000">Cortex&#45;A5</text>
</g>
<!-- Cortex_A7 -->
<g id="node53" class="node">
<title>Cortex_A7</title>
<polygon fill="#9acd32" stroke="#000000" points="1782,-300 1674,-300 1674,-264 1782,-264 1782,-300"/>
<text text-anchor="middle" x="1728" y="-278.9" font-family="Times,serif" font-size="12.00" fill="#000000">Cortex&#45;A7</text>
</g>
<!-- Cortex_A8 -->
<g id="node54" class="node">
<title>Cortex_A8</title>
<polygon fill="#9acd32" stroke="#000000" points="1673,-300 1565,-300 1565,-264 1673,-264 1673,-300"/>
<text text-anchor="middle" x="1619" y="-278.9" font-family="Times,serif" font-size="12.00" fill="#000000">Cortex&#45;A8</text>
</g>
<!-- Cortex_A9 -->
<g id="node55" class="node">
<title>Cortex_A9</title>
<polygon fill="#9acd32" stroke="#000000" points="1564,-300 1456,-300 1456,-264 1564,-264 1564,-300"/>
<text text-anchor="middle" x="1510" y="-278.9" font-family="Times,serif" font-size="12.00" fill="#000000">Cortex&#45;A9</text>
</g>
<!-- Cortex_A12 -->
<g id="node56" class="node">
<title>Cortex_A12</title>
<polygon fill="#9acd32" stroke="#000000" points="1455,-300 1347,-300 1347,-264 1455,-264 1455,-300"/>
<text text-anchor="middle" x="1401" y="-278.9" font-family="Times,serif" font-size="12.00" fill="#000000">Cortex&#45;A12</text>
</g>
<!-- Cortex_A15 -->
<g id="node57" class="node">
<title>Cortex_A15</title>
<polygon fill="#9acd32" stroke="#000000" points="1346,-300 1238,-300 1238,-264 1346,-264 1346,-300"/>
<text text-anchor="middle" x="1292" y="-278.9" font-family="Times,serif" font-size="12.00" fill="#000000">Cortex&#45;A15</text>
</g>
<!-- Cortex_A17 -->
<g id="node58" class="node">
<title>Cortex_A17</title>
<polygon fill="#9acd32" stroke="#000000" points="1237,-300 1129,-300 1129,-264 1237,-264 1237,-300"/>
<text text-anchor="middle" x="1183" y="-278.9" font-family="Times,serif" font-size="12.00" fill="#000000">Cortex&#45;A17</text>
</g>
<!-- Cortex_A710 -->
<g id="node77" class="node">
<title>Cortex_A710</title>
<polygon fill="#9acd32" stroke="#000000" points="1105,-180 997,-180 997,-144 1105,-144 1105,-180"/>
<text text-anchor="middle" x="1051" y="-158.9" font-family="Times,serif" font-size="12.00" fill="#000000">Cortex&#45;A710</text>
</g>
<!-- Cortex_A32&#45;&gt;Cortex_A710 -->
<!-- Cortex_A34 -->
<g id="node60" class="node">
<title>Cortex_A34</title>
<polygon fill="#9acd32" stroke="#000000" points="1650,-60 1542,-60 1542,-24 1650,-24 1650,-60"/>
<text text-anchor="middle" x="1596" y="-38.9" font-family="Times,serif" font-size="12.00" fill="#000000">Cortex&#45;A34</text>
</g>
<!-- Cortex_A35 -->
<g id="node61" class="node">
<title>Cortex_A35</title>
<polygon fill="#9acd32" stroke="#000000" points="1541,-60 1433,-60 1433,-24 1541,-24 1541,-60"/>
<text text-anchor="middle" x="1487" y="-38.9" font-family="Times,serif" font-size="12.00" fill="#000000">Cortex&#45;A35</text>
</g>
<!-- Cortex_A53 -->
<g id="node62" class="node">
<title>Cortex_A53</title>
<polygon fill="#9acd32" stroke="#000000" points="1432,-60 1324,-60 1324,-24 1432,-24 1432,-60"/>
<text text-anchor="middle" x="1378" y="-38.9" font-family="Times,serif" font-size="12.00" fill="#000000">Cortex&#45;A53</text>
</g>
<!-- Cortex_A57 -->
<g id="node63" class="node">
<title>Cortex_A57</title>
<polygon fill="#9acd32" stroke="#000000" points="1323,-60 1215,-60 1215,-24 1323,-24 1323,-60"/>
<text text-anchor="middle" x="1269" y="-38.9" font-family="Times,serif" font-size="12.00" fill="#000000">Cortex&#45;A57</text>
</g>
<!-- Cortex_A72 -->
<g id="node64" class="node">
<title>Cortex_A72</title>
<polygon fill="#9acd32" stroke="#000000" points="1214,-60 1106,-60 1106,-24 1214,-24 1214,-60"/>
<text text-anchor="middle" x="1160" y="-38.9" font-family="Times,serif" font-size="12.00" fill="#000000">Cortex&#45;A72</text>
</g>
<!-- Cortex_A73 -->
<g id="node65" class="node">
<title>Cortex_A73</title>
<polygon fill="#9acd32" stroke="#000000" points="1105,-60 997,-60 997,-24 1105,-24 1105,-60"/>
<text text-anchor="middle" x="1051" y="-38.9" font-family="Times,serif" font-size="12.00" fill="#000000">Cortex&#45;A73</text>
</g>
<!-- Cortex_A55 -->
<g id="node66" class="node">
<title>Cortex_A55</title>
<polygon fill="#9acd32" stroke="#000000" points="2327,-180 2219,-180 2219,-144 2327,-144 2327,-180"/>
<text text-anchor="middle" x="2273" y="-158.9" font-family="Times,serif" font-size="12.00" fill="#000000">Cortex&#45;A55</text>
</g>
<!-- Cortex_A65 -->
<g id="node67" class="node">
<title>Cortex_A65</title>
<polygon fill="#9acd32" stroke="#000000" points="2218,-180 2110,-180 2110,-144 2218,-144 2218,-180"/>
<text text-anchor="middle" x="2164" y="-158.9" font-family="Times,serif" font-size="12.00" fill="#000000">Cortex&#45;A65</text>
</g>
<!-- Cortex_A65AE -->
<g id="node68" class="node">
<title>Cortex_A65AE</title>
<polygon fill="#9acd32" stroke="#000000" points="2109,-180 2001,-180 2001,-144 2109,-144 2109,-180"/>
<text text-anchor="middle" x="2055" y="-158.9" font-family="Times,serif" font-size="12.00" fill="#000000">Cortex&#45;A65AE</text>
</g>
<!-- Cortex_A75 -->
<g id="node69" class="node">
<title>Cortex_A75</title>
<polygon fill="#9acd32" stroke="#000000" points="2000,-180 1892,-180 1892,-144 2000,-144 2000,-180"/>
<text text-anchor="middle" x="1946" y="-158.9" font-family="Times,serif" font-size="12.00" fill="#000000">Cortex&#45;A75</text>
</g>
<!-- Cortex_A76 -->
<g id="node70" class="node">
<title>Cortex_A76</title>
<polygon fill="#9acd32" stroke="#000000" points="1891,-180 1783,-180 1783,-144 1891,-144 1891,-180"/>
<text text-anchor="middle" x="1837" y="-158.9" font-family="Times,serif" font-size="12.00" fill="#000000">Cortex&#45;A76</text>
</g>
<!-- Cortex_A76AE -->
<g id="node71" class="node">
<title>Cortex_A76AE</title>
<polygon fill="#9acd32" stroke="#000000" points="1782,-180 1674,-180 1674,-144 1782,-144 1782,-180"/>
<text text-anchor="middle" x="1728" y="-158.9" font-family="Times,serif" font-size="12.00" fill="#000000">Cortex&#45;A76AE</text>
</g>
<!-- Cortex_A77 -->
<g id="node72" class="node">
<title>Cortex_A77</title>
<polygon fill="#9acd32" stroke="#000000" points="1673,-180 1565,-180 1565,-144 1673,-144 1673,-180"/>
<text text-anchor="middle" x="1619" y="-158.9" font-family="Times,serif" font-size="12.00" fill="#000000">Cortex&#45;A77</text>
</g>
<!-- Cortex_A78 -->
<g id="node73" class="node">
<title>Cortex_A78</title>
<polygon fill="#9acd32" stroke="#000000" points="1564,-180 1456,-180 1456,-144 1564,-144 1564,-180"/>
<text text-anchor="middle" x="1510" y="-158.9" font-family="Times,serif" font-size="12.00" fill="#000000">Cortex&#45;A78</text>
</g>
<!-- Cortex_A78AE -->
<g id="node74" class="node">
<title>Cortex_A78AE</title>
<polygon fill="#9acd32" stroke="#000000" points="1455,-180 1347,-180 1347,-144 1455,-144 1455,-180"/>
<text text-anchor="middle" x="1401" y="-158.9" font-family="Times,serif" font-size="12.00" fill="#000000">Cortex&#45;A78AE</text>
</g>
<!-- Cortex_X1 -->
<g id="node75" class="node">
<title>Cortex_X1</title>
<polygon fill="#9acd32" stroke="#000000" points="1346,-180 1238,-180 1238,-144 1346,-144 1346,-180"/>
<text text-anchor="middle" x="1292" y="-158.9" font-family="Times,serif" font-size="12.00" fill="#000000">Cortex&#45;X1</text>
</g>
<!-- Cortex_A78C -->
<g id="node76" class="node">
<title>Cortex_A78C</title>
<polygon fill="#9acd32" stroke="#000000" points="1237,-180 1129,-180 1129,-144 1237,-144 1237,-180"/>
<text text-anchor="middle" x="1183" y="-158.9" font-family="Times,serif" font-size="12.00" fill="#000000">Cortex&#45;A78C</text>
</g>
<!-- Cortex_A710&#45;&gt;Cortex_A73 -->
<!-- Neoverse_N1 -->
<g id="node78" class="node">
<title>Neoverse_N1</title>
<polygon fill="#c0c0c0" stroke="#000000" points="957,-180 849,-180 849,-144 957,-144 957,-180"/>
<text text-anchor="middle" x="903" y="-158.9" font-family="Times,serif" font-size="12.00" fill="#000000">Neoverse N1</text>
</g>
<!-- Neoverse_N2 -->
<g id="node79" class="node">
<title>Neoverse_N2</title>
<polygon fill="#c0c0c0" stroke="#000000" points="848,-180 740,-180 740,-144 848,-144 848,-180"/>
<text text-anchor="middle" x="794" y="-158.9" font-family="Times,serif" font-size="12.00" fill="#000000">Neoverse N2</text>
</g>
<!-- Early_ISA -->
<g id="node81" class="node">
<title>Early_ISA</title>
<polygon fill="#009acd" stroke="#000000" points="2272,-822 2056,-822 2056,-750 2272,-750 2272,-822"/>
<text text-anchor="middle" x="2164" y="-781.6" font-family="Times,serif" font-size="18.00" fill="#000000">Early_ISA</text>
</g>
<!-- Advanced_ISA -->
<g id="node82" class="node">
<title>Advanced_ISA</title>
<polygon fill="#ffa500" stroke="#000000" points="2272,-700 2056,-700 2056,-628 2272,-628 2272,-700"/>
<text text-anchor="middle" x="2164" y="-659.6" font-family="Times,serif" font-size="18.00" fill="#000000">Advanced_ISA</text>
</g>
<!-- Early_ISA&#45;&gt;Advanced_ISA -->
<!-- Cortex_ISA -->
<g id="node83" class="node">
<title>Cortex_ISA</title>
<polygon fill="#9acd32" stroke="#000000" points="2272,-578 2056,-578 2056,-506 2272,-506 2272,-578"/>
<text text-anchor="middle" x="2164" y="-537.6" font-family="Times,serif" font-size="18.00" fill="#000000">Cortex_ISA</text>
</g>
<!-- Advanced_ISA&#45;&gt;Cortex_ISA -->
<!-- Other_ISA -->
<g id="node84" class="node">
<title>Other_ISA</title>
<polygon fill="#c0c0c0" stroke="#000000" points="2272,-456 2056,-456 2056,-384 2272,-384 2272,-456"/>
<text text-anchor="middle" x="2164" y="-415.6" font-family="Times,serif" font-size="18.00" fill="#000000">Other_ISA</text>
</g>
<!-- Cortex_ISA&#45;&gt;Other_ISA -->
</g>
</svg>
